<svg xmlns="http://www.w3.org/2000/svg" width="200" height="200" viewBox="0 0 264.6 264.6" style="">
  <g fill="none" stroke="#fff" stroke-width="14.9" stroke-linecap="round" stroke-linejoin="round">
    <path d="M107 119l-30 30s-19-14-30-30c-11-17-1-40 7-51L38 51a124 124 0 00-31 82c0 68 56 124 125 124a121 121 0 0094-48c12-19-2-52-44-28-41 24-64-15-35-40 11-10 19-14 19-14M147 76c-6-10-16-25-27-32-11-6-36-1-49 9L55 36S86 6 137 7c65 2 122 57 120 126 0 14-3 22-6 33" class="xmDnGHHi_0"></path>
  </g>
<style data-made-with="vivus-instant">.xmDnGHHi_0{stroke-dasharray:1183 1185;stroke-dashoffset:1184;animation:xmDnGHHi_draw 1700ms ease-in-out 0ms forwards;}@keyframes xmDnGHHi_draw{100%{stroke-dashoffset:0;}}@keyframes xmDnGHHi_fade{0%{stroke-opacity:1;}92.98245614035088%{stroke-opacity:1;}100%{stroke-opacity:0;}}</style></svg>
