<?xml version="1.0" encoding="UTF-8" standalone="no"?>
<svg
   xmlns:dc="http://purl.org/dc/elements/1.1/"
   xmlns:cc="http://creativecommons.org/ns#"
   xmlns:rdf="http://www.w3.org/1999/02/22-rdf-syntax-ns#"
   xmlns:svg="http://www.w3.org/2000/svg"
   xmlns="http://www.w3.org/2000/svg"
   xmlns:sodipodi="http://sodipodi.sourceforge.net/DTD/sodipodi-0.dtd"
   xmlns:inkscape="http://www.inkscape.org/namespaces/inkscape"
   inkscape:version="1.0 (4035a4fb49, 2020-05-01)"
   sodipodi:docname="patek-grayscale.svg"
   viewBox="0 0 22.452 22.454"
   version="1.1"
   height="22.454"
   width="22.452"
   id="svg8">
  <metadata
     id="metadata12">
    <rdf:RDF>
      <cc:Work
         rdf:about="">
        <dc:format>image/svg+xml</dc:format>
        <dc:type
           rdf:resource="http://purl.org/dc/dcmitype/StillImage" />
        <dc:title></dc:title>
      </cc:Work>
    </rdf:RDF>
  </metadata>
  <defs
     id="defs10" />
  <sodipodi:namedview
     inkscape:current-layer="svg8"
     inkscape:window-maximized="0"
     inkscape:window-y="52"
     inkscape:window-x="0"
     inkscape:cy="11.073261"
     inkscape:cx="11.163543"
     inkscape:zoom="34.69083"
     showgrid="false"
     id="namedview8"
     inkscape:window-height="994"
     inkscape:window-width="1920"
     inkscape:pageshadow="2"
     inkscape:pageopacity="0"
     guidetolerance="10"
     gridtolerance="10"
     objecttolerance="10"
     borderopacity="1"
     bordercolor="#666666"
     pagecolor="#ffffff" />
  <path
     d="M 11.226562 0.001953125 A 11.226 11.226 0 0 0 0 11.228516 A 11.226 11.226 0 0 0 11.226562 22.453125 A 11.226 11.226 0 0 0 22.451172 11.228516 A 11.226 11.226 0 0 0 11.226562 0.001953125 z M 11.171875 2.140625 C 14.843975 2.140625 18.210541 4.3494 19.619141 7.75 C 21.024541 11.1426 20.247191 15.055544 17.650391 17.652344 C 15.053891 20.249114 11.140847 21.026394 7.7480469 19.621094 C 4.3470469 18.212594 2.1406266 14.840369 2.140625 11.167969 L 3.7734375 11.167969 C 3.7734375 14.184769 5.5961 16.960228 8.375 18.111328 C 11.1619 19.265828 14.362994 18.629194 16.496094 16.496094 C 18.629174 14.363094 19.265828 11.1621 18.111328 8.375 C 16.960128 5.5957 14.188575 3.7734375 11.171875 3.7734375 L 11.171875 2.140625 z M 11.171875 7.0332031 C 12.844975 7.0332031 14.355824 8.0440438 14.996094 9.5898438 C 15.636354 11.135644 15.280656 12.916609 14.097656 14.099609 C 12.914456 15.282669 11.133691 15.636364 9.5878906 14.996094 C 8.0421906 14.355894 7.0332014 12.846928 7.0332031 11.173828 L 7.7773438 11.173828 C 7.7773438 12.548328 8.6032469 13.784597 9.8730469 14.310547 C 11.142847 14.836467 12.602419 14.546019 13.574219 13.574219 C 14.546049 12.602319 14.834554 11.142847 14.308594 9.8730469 C 13.782694 8.6033569 12.546275 7.777343 11.171875 7.7773438 L 11.171875 7.0332031 z M 11.171875 8.9960938 C 12.051675 8.9960936 12.846874 9.5269036 13.183594 10.339844 C 13.520284 11.152644 13.333107 12.090721 12.710938 12.712891 C 12.088738 13.335071 11.152784 13.520344 10.339844 13.183594 C 9.5269036 12.846894 8.9960938 12.053698 8.9960938 11.173828 L 9.3867188 11.173828 C 9.3867188 11.896568 9.8205215 12.547629 10.488281 12.824219 C 11.156081 13.100809 11.922514 12.946627 12.433594 12.435547 C 12.944684 11.924447 13.098886 11.158014 12.822266 10.490234 C 12.545666 9.8224748 11.894655 9.3867188 11.171875 9.3867188 L 11.171875 8.9960938 z M 11.171875 9.6171875 C 11.800545 9.6171875 12.368785 9.9953418 12.609375 10.576172 C 12.849965 11.156972 12.716114 11.828877 12.271484 12.273438 C 11.826884 12.717987 11.157002 12.849965 10.576172 12.609375 C 9.9953718 12.368775 9.6171875 11.802528 9.6171875 11.173828 L 9.8964844 11.173828 C 9.8964844 11.690188 10.206434 12.153932 10.683594 12.351562 C 11.160754 12.549192 11.709039 12.441412 12.074219 12.076172 C 12.439399 11.710972 12.547239 11.162677 12.349609 10.685547 C 12.151989 10.208417 11.688315 9.8984375 11.171875 9.8984375 L 11.171875 9.6171875 z "
     style="fill:#4a4a4a;paint-order:markers fill stroke;fill-opacity:1"
     id="path818" />
</svg>
